<?xml version="1.0" encoding="UTF-8" standalone="no"?>
<svg
   shape-rendering="geometricPrecision"
   text-rendering="geometricPrecision"
   image-rendering="optimizeQuality"
   fill-rule="evenodd"
   clip-rule="evenodd"
   viewBox="0 0 512 303.51"
   version="1.1"
   id="svg1"
   sodipodi:docname="charging-icon.svg"
   inkscape:version="1.3 (0e150ed6c4, 2023-07-21)"
   xmlns:inkscape="http://www.inkscape.org/namespaces/inkscape"
   xmlns:sodipodi="http://sodipodi.sourceforge.net/DTD/sodipodi-0.dtd"
   xmlns="http://www.w3.org/2000/svg"
   xmlns:svg="http://www.w3.org/2000/svg">
  <defs
     id="defs1" />
  <sodipodi:namedview
     id="namedview1"
     pagecolor="#ffffff"
     bordercolor="#000000"
     borderopacity="0.25"
     inkscape:showpageshadow="2"
     inkscape:pageopacity="0.0"
     inkscape:pagecheckerboard="0"
     inkscape:deskcolor="#d1d1d1"
     inkscape:zoom="0.76660156"
     inkscape:cx="158.49172"
     inkscape:cy="187.18981"
     inkscape:window-width="1336"
     inkscape:window-height="708"
     inkscape:window-x="15"
     inkscape:window-y="15"
     inkscape:window-maximized="1"
     inkscape:current-layer="svg1" />
  <path
     d="M 208.16,30.04 H 37.79 C 16.99,30.04 0,47.03 0,67.83 v 167.84 c 0,20.78 17.03,37.8 37.79,37.8 h 118.4 l 6.54,-24.98 H 40.5 c -8.54,0 -15.53,-6.99 -15.53,-15.53 V 70.54 c 0,-8.51 7.02,-15.53 15.53,-15.53 h 152.09 c 5.18,-8.38 10.37,-16.71 15.57,-24.97 z"
     id="path3" />
  <path
     d="m 258.98,117.91 h 37.01 c 7.85,0.03 12.33,8.8 8.07,15.17 L 200.7,298.89 c -5.56,9.09 -19.94,3.71 -17.84,-6.97 l 28.17,-107.6 -43.9,0.74 c -7.59,0.14 -12.27,-8.08 -8.51,-14.6 L 260.63,4.69 c 5.39,-8.93 19.33,-4.15 17.97,6.28 z"
     id="path2"
     style="fill:#dbbc7f;fill-opacity:1" />
  <path
     d="m 462.99,235.67 v -24.12 h 37.15 c 3.29,0 6.25,-1.35 8.38,-3.48 a 11.89,11.89 0 0 0 3.48,-8.39 v -95.87 c 0,-3.26 -1.36,-6.25 -3.49,-8.38 -2.13,-2.13 -5.11,-3.49 -8.37,-3.49 H 462.99 V 67.83 c 0,-20.79 -17.03,-37.79 -37.8,-37.79 H 306.05 l -4.55,24.97 h 120.98 c 8.53,0 15.53,6.98 15.53,15.53 v 162.42 c 0,8.52 -7.01,15.53 -15.53,15.53 H 268.07 l -15.56,24.98 h 172.68 c 20.81,0 37.8,-16.98 37.8,-37.8 z"
     id="path1" />
</svg>
