<svg xmlns="http://www.w3.org/2000/svg" shape-rendering="geometricPrecision" text-rendering="geometricPrecision" image-rendering="optimizeQuality" fill-rule="evenodd" clip-rule="evenodd" viewBox="0 0 512 440.076"><path fill-rule="nonzero" d="M458.706 107.953c-3.395-8.176.479-17.558 8.655-20.953 8.176-3.395 17.558.48 20.953 8.655 14.916 35.713 22.966 80.699 23.639 125.412.668 44.045-5.834 88.153-19.979 123.197-3.288 8.207-12.621 12.194-20.828 8.906-8.207-3.287-12.194-12.62-8.906-20.827 12.561-31.12 18.329-70.855 17.719-110.899-.615-40.677-7.848-81.403-21.253-113.491zM313.377 220.036V407.79c0 9.342-3.758 17.208-9.535 22.89a32.712 32.712 0 01-22.894 9.396v-.058c-7.853-.005-15.818-2.812-22.24-9.001l-84.318-68.505H69.792c-19.155 0-36.605-7.839-49.248-20.473C7.871 329.379 0 311.937 0 292.774V165.097c0-19.167 7.871-36.604 20.544-49.264 12.643-12.634 30.093-20.474 49.248-20.474H173.43l84.623-85.658C264.628 3.009 272.857 0 280.948 0a32.73 32.73 0 0122.894 9.391c5.768 5.682 9.535 13.535 9.535 22.89v187.755zM283.132 407.79V32.281c0-.659-.175-1.13-.44-1.39-.166-.161-.435-.323-.767-.457a2.58 2.58 0 00-.977-.189c-.48 0-.987.193-1.395.606l-88.35 89.43a15.099 15.099 0 01-11.517 5.324H69.792c-10.898 0-20.809 4.444-27.981 11.611-7.135 7.126-11.566 16.997-11.566 27.881v127.677c0 10.889 4.431 20.756 11.566 27.882 7.172 7.166 17.083 11.611 27.981 11.611h109.894v.049a15.007 15.007 0 019.512 3.377l88.844 72.182c.524.409 1.031.857 1.511 1.346.448.457.955.668 1.395.668v-.058c.345 0 .681-.067.977-.189.328-.13.601-.296.767-.462.265-.26.44-.73.44-1.39zm92.789-239.952c-2.803-8.382 1.718-17.46 10.1-20.263 8.382-2.803 17.459 1.718 20.262 10.1 5.516 16.378 8.176 41.803 7.732 65.98-.431 23.693-3.893 46.973-10.593 60.724-3.875 7.965-13.486 11.279-21.45 7.404-7.965-3.875-11.28-13.486-7.405-21.451 4.655-9.557 7.1-27.805 7.454-47.179.386-20.908-1.709-42.287-6.1-55.315z"/></svg>